<svg vector-effect="inherit" xmlns="http://www.w3.org/2000/svg" viewBox="-0.37479 -0.42001 0.68959 0.80002">

<defs vector-effect="inherit"><linearGradient vector-effect="inherit" gradientTransform="matrix(0.12,0,0,0.12,0.5,0)" id="__id_7"><stop vector-effect="inherit" offset="0" stop-color="#009dc5"/><stop vector-effect="inherit" offset="1" stop-color="#62358c"/></linearGradient><linearGradient vector-effect="inherit" gradientTransform="matrix(0.12,0,0,0.12,0.5,0)" id="__id_8"><stop vector-effect="inherit" offset="0" stop-color="#009dc5"/><stop vector-effect="inherit" offset="1" stop-color="#af1615"/></linearGradient><linearGradient vector-effect="inherit" gradientTransform="matrix(0.12,0,0,0.12,0.5,0)" id="__id_9"><stop vector-effect="inherit" offset="0" stop-color="#af1615"/><stop vector-effect="inherit" offset="1" stop-color="#009f98"/></linearGradient><mask id="__mask_3" vector-effect="inherit"><path vector-effect="inherit" d="M 189.73203,314.31031 c -24.80807,3.63961 -49.73168,-0.2308 -74.5664,-0.72984 -12.77222,0.73693 -24.132673,-0.84132 -36.00563,0.18953 -13.559631,2.03136 -13.397401,-6.13551 -13.281147,-14.3468 0.341041,-7.42707 0.524405,-4.99417 0.726822,-11.20089 -4.183548,-0.39827 -23.018025,-0.39186 -20.11212,-8.73032 0.706599,-19.43821 7.495338,-37.90702 8.753476,-57.2534 4.456318,-22.8254 6.242285,-39.96765 9.211549,-64.16481 1.309176,-13.44421 3.885717,-25.11257 3.121605,-43.10901 3.061005,-19.714315 0.38658,-39.981594 5.475538,-59.269578 2.632688,-9.328839 13.195589,-5.714079 30.266497,-6.04264 -1.13864,-19.785026 12.67962,-18.765246 11.5675,0.76 11.55015,1.582373 17.20319,0.92617 25.73028,0.877448 0.22611,-16.717539 11.28402,-23.085884 12.20694,0.918753 10.98542,-0.253786 11.67976,-0.681306 26.6109,-0.162659 -0.77668,-21.944449 11.29223,-17.447974 11.02744,-1.638007 13.57213,-0.235924 7.2998,1.654339 23.98944,0.999263 -0.80512,-19.468812 10.5272,-20.031192 11.52979,-0.611155 12.87582,1.675504 17.90638,2.897359 24.29521,1.449673 0.88977,-21.041759 11.38032,-19.515215 11.7023,1.028498 15.9931,-0.842161 24.04549,9.802204 23.03724,25.70579 0.69666,8.120176 0.32932,19.826882 -6.71477,20.500405 -8.56137,0.724249 -1.8795,-21.705858 -5.99449,-31.720561 -3.404,0.456694 -0.12057,-0.979554 -10.17556,-1.428368 -1.54585,9.585509 4.05725,6.563021 3.4795,14.471455 -0.57775,7.908434 -18.66153,10.44531 -19.68478,-0.85885 -1.02325,-11.30416 5.25635,-4.238013 4.32094,-15.210895 -6.86982,0.06304 -16.53333,-1.707849 -24.07262,-1.429054 1.178,6.649128 0.43032,9.250119 2.0839,16.233545 1.65357,6.983426 -16.71396,15.532065 -18.95,2.749563 -2.23604,-12.782502 5.96728,-8.706028 5.95806,-18.67829 -13.20584,0.359675 -17.09271,0.143339 -25.53082,1.124236 -3.57526,12.443895 5.8077,3.897595 4.16998,16.830483 -1.63772,12.932888 -19.60914,10.046763 -20.2351,-0.873915 -0.62596,-10.920678 4.4302,-4.42102 4.95941,-15.432662 -7.31888,-0.923664 -16.58076,0.622379 -26.34821,0.629247 -0.0443,5.371359 1.1161,4.544396 1.1289,13.187434 0.0128,8.643038 -19.03225,11.358092 -19.04972,0.408773 -0.0175,-10.949319 5.79351,-6.960716 5.97612,-13.962702 -4.15199,-0.469478 -18.72943,-1.793695 -24.52194,-1.407871 -1.09858,12.120647 2.27155,2.452968 2.03576,16.563829 -0.2358,14.110861 -19.175297,8.321404 -18.641855,-1.357182 0.533442,-9.678586 4.372005,-0.384046 3.867155,-16.794562 -6.204614,-0.317045 -13.564029,-1.144511 -19.827339,0.188261 -5.708817,8.509164 -2.093227,21.788399 -4.515049,32.524183 0.345388,19.270732 -0.793673,34.488722 -1.399399,51.848962 0.556897,11.87904 1.365219,23.74972 1.391658,35.63812 0.05213,23.44125 -1.576322,47.40575 -2.431462,70.28188 -2.086743,11.63549 -0.421001,25.44225 -1.447529,36.92101 -2.183641,10.92105 -0.133877,11.38913 11.4725,11.08337 20.35984,1.59968 35.26607,-0.69473 52.88188,1.61375 27.27257,3.50043 54.73344,2.02874 81.81812,-1.39735 10.94575,-1.33123 21.5672,-0.36044 32.35191,-0.39031 14.47355,-0.0401 17.06593,-0.11051 16.90734,-13.3025 -0.12557,-10.44532 -1.10804,-21.58134 3.90825,-31.09359 9.61965,-7.44677 11.75669,19.55846 9.2175,28.22187 -2.8617,9.35612 4.78747,29.24804 -10.81512,28.64293 -13.43621,-2.8376 -27.86568,-1.86088 -41.81384,-1.68528 -13.71045,0.17261 -28.39616,0.60873 -41.04651,2.69079 z M 67.53378,249.88266 c 1.23709,-12.88251 1.449814,-27.80335 0.696423,-41.1169 -1.191749,4.55251 -3.870786,19.97256 -4.540199,24.67424 h -4e-6 c -1.623694,14.34979 -6.795719,29.17516 -8.411608,44.52807 0,0 6.290868,1.94258 11.489843,1.2727 0.931549,-11.81261 0.271575,-24.21413 0.765545,-29.35811 z" stroke-width="4" fill="white" stroke="white"/></mask></defs>

<g id="print" vector-effect="inherit" fill="black" stroke="black" stroke-width="0"><g vector-effect="inherit" transform="matrix(0.0026617,0,0,0.0026617,-0.47112,-0.48731)"><g vector-effect="inherit" mask="url(#__mask_3)"><g vector-effect="inherit" transform="matrix(200,0,0,200,-40,-30)"><rect vector-effect="inherit" x="0" y="0" width="2" height="0.7" fill="url(#__id_7)"/><rect vector-effect="inherit" x="0" y="0" width="2" height="0.7" fill="url(#__id_8)" transform="matrix(0,1,1,0,0,0)"/><rect vector-effect="inherit" x="0" y="0" width="2" height="0.7" fill="url(#__id_9)" transform="translate(0,1.3)"/></g></g><path vector-effect="inherit" d="M 221.48,178.65 c -2.32657,-3.81734 -8.63278,6.76 -11.99627,9.09107 -11.46434,12.24221 -19.45574,27.43886 -32.26973,38.48083 -4.37974,4.37471 -7.90227,9.51999 -13.964,11.6081 -8.5739,3.85602 -12.68255,-3.70985 -10.875,-11.09687 4.191,-15.17633 7.65328,-30.5837 11.8659,-45.74719 1.29382,-5.81555 7.02113,-13.8099 3.64715,-18.71332 -5.8011,3.38706 -9.93496,9.49488 -14.8428,14.18426 -13.63538,14.28881 -25.18487,30.62181 -33.07678,48.77516 -3.9105,7.15562 -7.49515,16.14429 -16.05045,18.65176 -11.234532,1.46891 -8.983861,-11.58066 -8.910173,-18.70523 -0.514552,-14.19688 3.798502,-27.8041 7.995323,-41.1694 3.64304,-13.71057 5.64751,-28.0456 11.62004,-41.01886 3.70809,-4.69623 8.71259,-8.63818 13.99757,-11.45609 10.39552,-2.14488 6.72234,12.88664 4.24965,18.34906 -5.30282,17.36772 -9.67027,35.07558 -16.33408,51.98812 1.72154,6.02515 8.18542,-7.64958 10.85013,-9.96058 8.2025,-12.01921 19.31206,-21.57286 29.14178,-32.20019 8.94855,-8.93646 18.18053,-17.60827 26.54049,-27.10001 6.9884,-6.17025 16.17231,2.11453 11.56957,10.00895 -2.48698,11.94006 -4.59626,24.08278 -8.63832,35.60043 -3.60168,8.10706 -8.33573,17.50092 -7.18438,26.2775 6.3419,-1.81778 9.50791,-9.65283 14.16831,-14.28011 12.56422,-15.41617 27.35903,-28.77119 42.38357,-41.71551 6.57193,-5.87615 12.00643,-13.35116 19.685,-17.77688 6.97708,-0.77002 11.46643,6.60141 4.37625,10.6525 -8.46225,11.07094 -13.66858,24.34817 -17.56656,37.62281 -2.59078,10.47766 -6.73792,20.57559 -6.53461,31.19897 0.12116,6.33115 1.11719,13.14431 4.60296,18.43086 3.77943,5.73193 10.40059,9.86004 16.40133,12.45986 -1.60008,6.26688 -12.37846,9.18004 -18.35624,6.03 -8.11686,-4.10112 -13.65793,-11.83293 -18.75766,-19.09969 -4.60143,-6.80239 -4.66896,-15.29511 -2.85734,-23.03015 1.00807,-8.92955 2.89062,-17.64876 5.11937,-26.34016 z" fill="black" stroke-width="2" stroke="black" transform="matrix(1.1,0,0,1.1,-10,-25)"/></g></g>

</svg>