<svg xmlns="http://www.w3.org/2000/svg" viewBox="898.03 558.13 1109.9 1008.2">
<path d="M1051.19,1140.41c16.25,14.46,6.37,108.03,0.16,150.5c-6.36,43.12-2.07,96.74-0.29,150.09c0.89,26.16,7.9,29.37,1.2,65.6c-4.53,24.59,0.2,57.97,44.38,57.97c44.17,0,46.34-41.86,44.6-59.86c-4.88-50.38,4.68-94.06,1.54-137.14c-1.94-26.46,26.73-34.77,45.22-30.89c14.24,2.98,28.6,7.13,31.03,28.37c3.72,32.57,16.29,92.74,8.82,140.64c-2.33,14.79-2.34,58.87,43.75,58.87c46.1,0,47.67-35.92,41.73-58.87c-1.3-5.03-5.13-27.96-1.57-58.08c11.37-96.7,20.11-152.93,5.85-209.6c-7.18-28.53,0.93-69.07-5.59-100.74c-0.64-8.47,0.2-13.79,3.71-15.9c3.53-2.1,11.66-1.03,21.8,3.34c8.31,3.58,15.94,5.75,22.9,6.68c6.98,0.97,13.3,0.78,19.02-0.36c34.36-6.72,46.8-43.84,49.67-58.15c7.37-36.91,10.02-52.34,13.82-64.08c8.63-26.64,11.68-10.78,13.92-0.28c2.9,13.65,3.06,42.37,26.81,54.17c33.07,16.42,60.59-29.16,78.07-11.67c34.95,33.02-45.03,185.13-46.63,187.71c-15.03,24.18-28.86,82.14,15.19,85.72c44.02,3.55,52.94,18.82,51.09,38.27c-4.89,51.69,10.14,72.02,0.15,137.15c-2.58,16.82-15.22,64.56,44.6,64.69c43.64,0.14,43.6-43.58,40.6-66.64c-6.94-53.42,13.8-80.69,4.98-141.47c-3.79-26.06-6.56-27.28,14.81-24.11c10.63,1.58,36.17,2.29,40.8,1.39c13.41-2.63,21.85-3.9,19.22,16.32c-4.36,34.01,10.38,53.97,9.1,138.15c-0.3,19-15.2,70.65,26.77,76.35c56.3,7.69,49.37-44.05,48.1-56.73c-5.22-52.14,17.29-46.18-1.85-152.64c-5.93-32.99,16.72-26.8,45.52-30.06c39.54-4.59,32.36-38.13,10.41-80.93c-6.08-11.88-11.86-40.91-25.66-76.63c-21.34-55.35-40.14-99.38-21.18-108.79c20.44-10.14,49.71,22.07,64.3,58.29c9.44,23.38,27.29,57.58,31.94,71.9c20.03,61.73,85.4,28.23,70.76-12.96c-6.13-17.21-36.42-70.62-45.25-101.8c-12.55-44.36-63.53-121.8-130.71-138.43c-64.13-15.88-66.99-14.38-71.67-53.61c-6.94-58.4,51.95-70.75,72.74-28.05c6.67,13.63-1.35,35.99,23.25,47.32c33.3,15.33,46.43-10.9,59.59-55.69c6.24-32.98-14.49-40.93-12.23-75.87c4.34-66.69-24.02-204.01-139.62-210.07c-15.42-0.8-30.87,0.46-46.6,4.62c-20.95,5.59-42.45-3.45-53.82-4.69c-90.92-9.9-145.31,104.71-165.37,171.41c-12.45,41.34-21.79,111.11,9.05,129c17.39,10.07,34.66,37.07,64.01,32.99c26.39-3.65,26.65-23.76,23.74-40.44c-1.93-10.99,5.28-23.7,19.17-27.43c13.89-3.76,38.68,2.58,47.4,16.06c8.7,13.51,11.88,26.12-0.02,53.04c-10.48,17.11-8.59,25.2-45.53,25.86c-36.91,0.64-68.18,31.99-79.39,43.29c-28.69,28.97-30.06,1.32-37.37-24.48c-5.76-20.3-9.81-31.1-14.7-43.75c-16.73-43.35-79.93-59.55-97.61,96.26c-3.42,30.12-6.91,69.17-57.9,18.39c-30.33-30.2-60.04-21.75-73.01-23.92c-29.54-4.92-35.42-41.67-8.1-48.97c56.98-15.2,43.14-49.89,58.67-55.35c9.71-3.42,28.63-24.68,29.64-50.19c0.92-22.9-8.59-40.08-20.56-48.58c-11.06-7.81-10.81-42.45-35.2-68.76c-17.98-19.39-49.41-33.35-108.64-33.2c-147.3,0.33-124.97,110.18-137.84,115.58c-7.96,3.33-22.77,20.3-23.39,49.52c-0.54,25.38,16.51,50.03,28.18,52.15c28.72,5.17,0.96,22.65,62.16,38.17c22.11,5.65,34.6,29.41,15.55,47.93c-19.08,18.54-46.59-0.98-82.58,21.76c-12.11,7.65-27.12,26.39-33.91,36.33c-6.8,9.93-25,48.48-30.77,68.49c-9.14,31.78-24.38,72.48-40.5,90.75c-14.09,15.96-50.76,84.26-2.34,92.74c43.82,7.67,64.77-27.38,67.73-61.56c1.67-19.34,17.61-43.83,24.04-59.26C1024.69,1150.45,1032.96,1124.19,1051.19,1140.41z" fill="#e83f4b"/>
</svg>
