<svg xmlns="http://www.w3.org/2000/svg" viewBox="35.19 24.284 668.37 302.57">
<defs><linearGradient gradientTransform="matrix(0.12,0,0,0.12,0.5,0)" id="__id_1"><stop offset="0" stop-color="#009dc5"/><stop offset="1" stop-color="#62358c"/></linearGradient><linearGradient gradientTransform="matrix(0.12,0,0,0.12,0.5,0)" id="__id_2"><stop offset="0" stop-color="#009dc5"/><stop offset="1" stop-color="#af1615"/></linearGradient><linearGradient gradientTransform="matrix(0.12,0,0,0.12,0.5,0)" id="__id_3"><stop offset="0" stop-color="#af1615"/><stop offset="1" stop-color="#009f98"/></linearGradient><mask id="__mask_1"><path d="M 189.73203,314.31031 c -24.80807,3.63961 -49.73168,-0.2308 -74.5664,-0.72984 -12.77222,0.73693 -24.132673,-0.84132 -36.00563,0.18953 -13.559631,2.03136 -13.397401,-6.13551 -13.281147,-14.3468 0.341041,-7.42707 0.524405,-4.99417 0.726822,-11.20089 -4.183548,-0.39827 -23.018025,-0.39186 -20.11212,-8.73032 0.706599,-19.43821 7.495338,-37.90702 8.753476,-57.2534 4.456318,-22.8254 6.242285,-39.96765 9.211549,-64.16481 1.309176,-13.44421 3.885717,-25.11257 3.121605,-43.10901 3.061005,-19.714315 0.38658,-39.981594 5.475538,-59.269578 2.632688,-9.328839 13.195589,-5.714079 30.266497,-6.04264 -1.13864,-19.785026 12.67962,-18.765246 11.5675,0.76 11.55015,1.582373 17.20319,0.92617 25.73028,0.877448 0.22611,-16.717539 11.28402,-23.085884 12.20694,0.918753 10.98542,-0.253786 11.67976,-0.681306 26.6109,-0.162659 -0.77668,-21.944449 11.29223,-17.447974 11.02744,-1.638007 13.57213,-0.235924 7.2998,1.654339 23.98944,0.999263 -0.80512,-19.468812 10.5272,-20.031192 11.52979,-0.611155 12.87582,1.675504 17.90638,2.897359 24.29521,1.449673 0.88977,-21.041759 11.38032,-19.515215 11.7023,1.028498 15.9931,-0.842161 24.04549,9.802204 23.03724,25.70579 0.69666,8.120176 0.32932,19.826882 -6.71477,20.500405 -8.56137,0.724249 -1.8795,-21.705858 -5.99449,-31.720561 -3.404,0.456694 -0.12057,-0.979554 -10.17556,-1.428368 -1.54585,9.585509 4.05725,6.563021 3.4795,14.471455 -0.57775,7.908434 -18.66153,10.44531 -19.68478,-0.85885 -1.02325,-11.30416 5.25635,-4.238013 4.32094,-15.210895 -6.86982,0.06304 -16.53333,-1.707849 -24.07262,-1.429054 1.178,6.649128 0.43032,9.250119 2.0839,16.233545 1.65357,6.983426 -16.71396,15.532065 -18.95,2.749563 -2.23604,-12.782502 5.96728,-8.706028 5.95806,-18.67829 -13.20584,0.359675 -17.09271,0.143339 -25.53082,1.124236 -3.57526,12.443895 5.8077,3.897595 4.16998,16.830483 -1.63772,12.932888 -19.60914,10.046763 -20.2351,-0.873915 -0.62596,-10.920678 4.4302,-4.42102 4.95941,-15.432662 -7.31888,-0.923664 -16.58076,0.622379 -26.34821,0.629247 -0.0443,5.371359 1.1161,4.544396 1.1289,13.187434 0.0128,8.643038 -19.03225,11.358092 -19.04972,0.408773 -0.0175,-10.949319 5.79351,-6.960716 5.97612,-13.962702 -4.15199,-0.469478 -18.72943,-1.793695 -24.52194,-1.407871 -1.09858,12.120647 2.27155,2.452968 2.03576,16.563829 -0.2358,14.110861 -19.175297,8.321404 -18.641855,-1.357182 0.533442,-9.678586 4.372005,-0.384046 3.867155,-16.794562 -6.204614,-0.317045 -13.564029,-1.144511 -19.827339,0.188261 -5.708817,8.509164 -2.093227,21.788399 -4.515049,32.524183 0.345388,19.270732 -0.793673,34.488722 -1.399399,51.848962 0.556897,11.87904 1.365219,23.74972 1.391658,35.63812 0.05213,23.44125 -1.576322,47.40575 -2.431462,70.28188 -2.086743,11.63549 -0.421001,25.44225 -1.447529,36.92101 -2.183641,10.92105 -0.133877,11.38913 11.4725,11.08337 20.35984,1.59968 35.26607,-0.69473 52.88188,1.61375 27.27257,3.50043 54.73344,2.02874 81.81812,-1.39735 10.94575,-1.33123 21.5672,-0.36044 32.35191,-0.39031 14.47355,-0.0401 17.06593,-0.11051 16.90734,-13.3025 -0.12557,-10.44532 -1.10804,-21.58134 3.90825,-31.09359 9.61965,-7.44677 11.75669,19.55846 9.2175,28.22187 -2.8617,9.35612 4.78747,29.24804 -10.81512,28.64293 -13.43621,-2.8376 -27.86568,-1.86088 -41.81384,-1.68528 -13.71045,0.17261 -28.39616,0.60873 -41.04651,2.69079 z M 67.53378,249.88266 c 1.23709,-12.88251 1.449814,-27.80335 0.696423,-41.1169 -1.191749,4.55251 -3.870786,19.97256 -4.540199,24.67424 h -4e-6 c -1.623694,14.34979 -6.795719,29.17516 -8.411608,44.52807 0,0 6.290868,1.94258 11.489843,1.2727 0.931549,-11.81261 0.271575,-24.21413 0.765545,-29.35811 z" stroke-width="4" fill="white" stroke="white"/></mask></defs>
<g mask="url(#__mask_1)"><g transform="matrix(200,0,0,200,-40,-30)"><rect x="0" y="0" width="2" height="0.7" fill="url(#__id_1)"/><rect x="0" y="0" width="2" height="0.7" fill="url(#__id_2)" transform="matrix(0,1,1,0,0,0)"/><rect x="0" y="0" width="2" height="0.7" fill="url(#__id_3)" transform="translate(0,1.3)"/></g></g><path d="M 221.48,178.65 c -2.32657,-3.81734 -8.63278,6.76 -11.99627,9.09107 -11.46434,12.24221 -19.45574,27.43886 -32.26973,38.48083 -4.37974,4.37471 -7.90227,9.51999 -13.964,11.6081 -8.5739,3.85602 -12.68255,-3.70985 -10.875,-11.09687 4.191,-15.17633 7.65328,-30.5837 11.8659,-45.74719 1.29382,-5.81555 7.02113,-13.8099 3.64715,-18.71332 -5.8011,3.38706 -9.93496,9.49488 -14.8428,14.18426 -13.63538,14.28881 -25.18487,30.62181 -33.07678,48.77516 -3.9105,7.15562 -7.49515,16.14429 -16.05045,18.65176 -11.234532,1.46891 -8.983861,-11.58066 -8.910173,-18.70523 -0.514552,-14.19688 3.798502,-27.8041 7.995323,-41.1694 3.64304,-13.71057 5.64751,-28.0456 11.62004,-41.01886 3.70809,-4.69623 8.71259,-8.63818 13.99757,-11.45609 10.39552,-2.14488 6.72234,12.88664 4.24965,18.34906 -5.30282,17.36772 -9.67027,35.07558 -16.33408,51.98812 1.72154,6.02515 8.18542,-7.64958 10.85013,-9.96058 8.2025,-12.01921 19.31206,-21.57286 29.14178,-32.20019 8.94855,-8.93646 18.18053,-17.60827 26.54049,-27.10001 6.9884,-6.17025 16.17231,2.11453 11.56957,10.00895 -2.48698,11.94006 -4.59626,24.08278 -8.63832,35.60043 -3.60168,8.10706 -8.33573,17.50092 -7.18438,26.2775 6.3419,-1.81778 9.50791,-9.65283 14.16831,-14.28011 12.56422,-15.41617 27.35903,-28.77119 42.38357,-41.71551 6.57193,-5.87615 12.00643,-13.35116 19.685,-17.77688 6.97708,-0.77002 11.46643,6.60141 4.37625,10.6525 -8.46225,11.07094 -13.66858,24.34817 -17.56656,37.62281 -2.59078,10.47766 -6.73792,20.57559 -6.53461,31.19897 0.12116,6.33115 1.11719,13.14431 4.60296,18.43086 3.77943,5.73193 10.40059,9.86004 16.40133,12.45986 -1.60008,6.26688 -12.37846,9.18004 -18.35624,6.03 -8.11686,-4.10112 -13.65793,-11.83293 -18.75766,-19.09969 -4.60143,-6.80239 -4.66896,-15.29511 -2.85734,-23.03015 1.00807,-8.92955 2.89062,-17.64876 5.11937,-26.34016 z"/><path d="M 313.81,225.44 c 3.91428,3.07789 8.09978,7.74885 13.47934,6.93496 6.89567,-1.43245 13.33892,-4.31331 19.88503,-6.78434 3.59221,-2.40626 3.4529,3.14986 3.13813,5.12938 -0.7013,4.41028 -6.29515,6.51379 -10.19156,8.69562 -6.79181,3.80312 -14.35235,6.77754 -22.20657,7.225 -5.30846,-0.16964 -9.98742,-2.32923 -14.42562,-4.76875 -4.75028,-2.61106 -8.79397,-6.54008 -12.58412,-10.29976 -4.32815,-5.43793 -8.88664,-11.16655 -10.74463,-17.97211 -1.48403,-10.69199 -0.36618,-21.70618 2.15467,-32.14525 1.43199,-5.93 4.24865,-11.49222 7.24408,-16.80663 3.3479,-5.93976 7.87678,-12.16373 11.87753,-16.65312 6.76944,-6.99229 14.12316,-10.69209 22.77825,-15.31828 7.78209,-3.38426 17.62578,-1.06145 23.44797,4.99828 4.77529,5.46826 6.48673,13.10954 6.30813,20.2125 -0.88756,6.11005 -6.58785,9.83246 -11.07641,13.35953 -9.43872,6.07523 -19.09697,12.78635 -30.54422,14.14297 -5.23269,-0.26376 -7.26726,3.94659 -6.69375,8.63 0.0686,8.39879 0.87096,16.99372 3.72641,24.93719 1.02921,2.4231 2.4939,4.68292 4.42734,6.48281 z M 317,152.23 c -4.76613,6.12957 -7.72952,13.55964 -8.86,21.22 3.13103,3.23806 9.54264,-1.20111 13.73375,-2.04438 7.13484,-2.96231 14.21767,-6.84548 19.44031,-12.62359 3.68113,-6.25557 -1.89633,-14.7543 -8.78031,-15.39953 -6.58723,-0.95779 -11.72709,4.2032 -15.53375,8.8475 z M 403.34,218.53 c 2.54735,7.04038 8.41332,-6.86226 11.17953,-9.15313 5.9064,-9.43478 11.96789,-18.75709 18.85922,-27.51625 6.20961,-8.5469 15.56711,-21.60633 24.12309,-29.06953 8.19271,-7.65502 11.9007,-9.66674 19.518,-17.08187 3.77878,-3.88272 12.69073,-6.78486 14.70016,0.24078 -0.88824,5.63968 -4.44622,11.36048 -6.47328,17.11234 -3.00582,8.52911 -6.10424,17.02489 -8.43133,25.78641 -3.39162,10.7807 -7.2465,21.57771 -8.39039,32.88563 3.58387,6.67188 9.63629,-4.90862 12.82854,-7.62749 12.57264,-14.32082 24.45385,-29.24562 37.20755,-43.40111 7.7292,-8.49586 15.37873,-16.20816 26.02641,-22.11203 8.6731,-1.35764 9.51037,9.34437 2.72431,13.0014 -8.09003,10.06948 -14.38174,21.92723 -16.01931,34.88172 -2.55365,11.8776 -6.02505,24.01568 -4.64859,36.2586 2.2912,9.23788 13.08472,5.79582 19.38609,8.55453 4.30062,7.79746 -8.50845,10.12077 -13.96984,10.73562 -11.46176,1.69134 -22.33986,-8.2173 -23.72157,-19.37675 -1.41143,-10.31862 0.2435,-20.71342 -0.10484,-31.062 -5.04237,1.3842 -9.16702,9.16876 -13.52125,13.28563 -8.40598,9.42406 -14.402,21.80127 -26.67633,26.94266 -5.7833,3.30582 -14.56789,4.80115 -17.59008,-2.89047 -4.75992,-6.77997 -1.46866,-14.73364 -0.73131,-22.05094 0.58273,-5.78295 2.30422,-11.41547 4.04323,-16.96145 2.48664,-7.9303 6.14819,-15.45625 9.10199,-23.2123 -1.82739,-4.67593 -7.17074,4.01773 -10.09055,6.84512 -5.49351,5.31964 -9.09016,12.30143 -13.48258,18.56113 -6.59861,9.40377 -11.95344,19.72606 -19.33187,28.53125 -5.85304,6.98484 -10.53858,15.75749 -19.60063,19.05859 -6.23662,3.99867 -10.58031,-4.41457 -13.27234,-9.04156 -3.88409,-6.67587 -2.35987,-15.38608 -1.87703,-23.09453 0.77678,-12.40108 4.66067,-24.42162 7.63234,-36.48641 1.87428,-7.60947 4.80648,-14.92473 6.42485,-22.61578 2.00795,-6.21964 9.97845,-16.33628 16.92781,-12.03844 3.60653,4.73698 0.0803,11.14741 0.29105,16.57653 -1.26155,13.01554 -6.53563,25.18192 -9.21246,37.92221 -2.60006,6.97797 -2.72693,13.53862 -3.47588,20.39378 -0.26162,2.39466 -0.53616,5.13324 -0.35271,7.21811 z M 586.73,163.23 c 7.0108,-7.62986 14.90094,-14.42609 22.81719,-21.08625 6.0973,-5.06312 14.84986,-6.03938 21.95531,-2.58875 1.95847,1.1547 3.88035,1.76831 7.69356,3.95596 1.99932,-3.53835 1.55683,-1.74829 3.21945,-4.00276 5.77662,-3.23012 14.40907,-4.58832 19.19402,1.07481 2.53362,1.41415 5.26448,8.20285 5.81023,11.81164 5.7615,-0.65864 3.17385,-0.22976 6.45024,-0.62961 5.49642,-0.70954 11.42656,-1.34512 16.38236,-3.32253 3.86393,-1.54173 12.87265,-4.72127 12.2846,1.49113 -0.0386,2.88963 -3.30549,6.52689 -5.5146,7.99887 -6.71567,1.06104 -13.26223,3.94032 -19.91521,4.72593 -3.32607,0.96379 -2.61518,0.71028 -7.4052,1.83827 -0.28552,5.0398 -0.80875,9.07522 -2.00382,13.44645 -2.56274,9.37379 -5.99272,18.63397 -10.97075,27.01043 -3.99125,5.11194 -8.32528,9.95449 -12.04738,15.28707 -9.31077,10.01904 -19.63564,20.16121 -32.935,24.49438 -8.62606,1.51523 -18.81266,2.11536 -25.55047,-4.58125 -3.95335,-4.45878 -7.92189,-8.81277 -10.64953,-14.00438 -2.50642,-4.77055 -4.47383,-10.00082 -5.045,-15.35937 -0.75217,-7.0566 0.1363,-14.4602 2.23094,-21.1725 4.14879,-9.00538 7.13054,-18.97095 13.99906,-26.3875 z m 59.99,-15.6 c -4.1395,6.96423 5.02318,7.7783 10.95584,7.25528 1.07962,-6.88905 -6.79558,-12.29114 -10.95584,-7.25528 z m -34.5,7.22 c -12.08832,14.22064 -22.85679,33.23829 -22.01295,51.9613 1.20659,7.04647 2.87123,15.68215 9.32133,21.00096 7.58754,6.4223 14.16822,4.55881 19.74974,0.43586 14.71579,-9.81753 26.12759,-24.26373 32.51297,-40.75375 2.82244,-7.24954 6.32546,-14.52177 6.52791,-22.43419 -5.87415,-1.49206 -13.43955,0.53248 -18.25088,-4.38581 -5.51494,-6.43207 -13.91617,-10.18144 -22.34687,-10.07375 -2.32549,0.59054 -3.94945,2.55688 -5.50125,4.24938 z"/>
</svg>
